<svg xmlns="http://www.w3.org/2000/svg" width="240" height="240" fill="none" viewBox="0 0 240 240">
  <path fill="#fff" d="M237.635 99.235c-.65-.51-6.725-5.035-19.54-5.035-3.385.015-6.76.3-10.095.855-2.48-16.77-16.095-24.65-16.725-25.015l-3.44-1.96-2.265 3.22c-2.835 4.33-5.34 8.8-6.555 13.815-2.295 9.575-.9 18.565 4.03 26.25-5.96 3.275-16.115 3.565-18.045 3.635H7.91c-4.13.005-7.48 3.3-7.505 7.37-.185 13.665 1.765 27.765 6.53 40.595 5.445 14.09 13.55 24.47 24.09 30.82C42.835 200.92 62.025 205 83.78 205a159.43 159.43 0 0 0 29.295-2.62 123.669 123.669 0 0 0 38.235-13.7 104.94 104.94 0 0 0 26.095-21.075c12.525-13.99 19.985-29.565 25.535-43.41h2.21c13.715 0 22.145-5.415 26.795-9.95a28.883 28.883 0 0 0 7.07-10.325l.985-2.84-2.365-1.845Z"/>
  <path fill="#fff" d="M40 110H25c-2.76 0-5-2.24-5-5V90c0-2.76 2.24-5 5-5h15c2.76 0 5 2.24 5 5v15c0 2.76-2.24 5-5 5Zm30 0H55c-2.76 0-5-2.24-5-5V90c0-2.76 2.24-5 5-5h15c2.76 0 5 2.24 5 5v15c0 2.76-2.24 5-5 5Zm30 0H85c-2.76 0-5-2.24-5-5V90c0-2.76 2.24-5 5-5h15c2.76 0 5 2.24 5 5v15c0 2.76-2.24 5-5 5Zm30 0h-15c-2.76 0-5-2.24-5-5V90c0-2.76 2.24-5 5-5h15c2.76 0 5 2.24 5 5v15c0 2.76-2.24 5-5 5ZM70 80H55c-2.76 0-5-2.24-5-5V60c0-2.76 2.24-5 5-5h15c2.76 0 5 2.24 5 5v15c0 2.76-2.24 5-5 5Zm30 0H85c-2.76 0-5-2.24-5-5V60c0-2.76 2.24-5 5-5h15c2.76 0 5 2.24 5 5v15c0 2.76-2.24 5-5 5Zm30 0h-15c-2.76 0-5-2.24-5-5V60c0-2.76 2.24-5 5-5h15c2.76 0 5 2.24 5 5v15c0 2.76-2.24 5-5 5Zm0-30h-15c-2.76 0-5-2.24-5-5V30c0-2.76 2.24-5 5-5h15c2.76 0 5 2.24 5 5v15c0 2.76-2.24 5-5 5Zm30 60h-15c-2.76 0-5-2.24-5-5V90c0-2.76 2.24-5 5-5h15c2.76 0 5 2.24 5 5v15c0 2.76-2.24 5-5 5Z"/>
</svg>
