<svg xmlns="http://www.w3.org/2000/svg" width="192" height="171" fill="none" viewBox="0 0 192 171">
  <path fill="#E4E4E4" d="M57.124 152.319c-7.282-5.728-15.05-11.219-20.358-18.952-11.17-13.637-19.77-29.425-25.65-46.017-3.553-10.788-4.77-22.355-9.351-32.727-4.792-7.533.821-15.768 9.073-18.162 3.674-.705 10.133-4.17 2.336-1.694-6.99 5.13-7.667-4.655-.5-5.275 4.893-.65 6.694-4.655 5.02-8.26-5.25-3.425 12.735-7.188 3.685-12.298-9.427-10.17 13.186-12.129 7.607-.578-1.335 8.882 15.802-1.628 11.826 8.63 4.04 4.925 15.133 1.12 14.858 8.03 5.887.405 7.907 5.359 13.434 5.739 5.728 2.586 16.11 4.625 18.06 11.079-5.683 4.499-18.841-9.293-19.473 3.16 1.716 18.397 1.279 37.347 8.01 54.865 3.183 10.608 10.9 18.958 17.87 27.22 6.669 8.091 15.703 13.787 24.91 18.583 8.076 3.809 16.783 6.336 25.585 7.921 3.57-2.731 9.873-12.883 15.443-8.602.264 4.81-11.054 10.055-.533 9.523 6.178-1.863 10.464 4.778 15.551-1.213 4.687 5.552 19.482-3.547 16.147 7.802-4.51 2.909-11.087 1.151-15.604 5.154-7.447-3.72-13.377 3.328-21.622 2.437-9.156 1.64-18.471 2.302-27.755 2.316-15.229-1.203-30.781-1.71-45.27-7.013-8.16-2.372-16.126-7.019-23.299-11.668Zm12.862 5.573c7.97 3.446 15.763 7.079 24.497 8.174 13.857 1.928 28.166 4.892 42.073 2.188-6.294-2.842-12.801 1.107-19.071-2.032-7.521 1.618-15.591-.413-23.236-1.412-8.694-3.873-18.076-6.536-26.218-11.562-10.173-3.716 5.262 4.765 8.009 5.452 6.36 3.609-6.993-1.851-8.876-3.351-5.326-2.988-6.005-2.364-.527.671 1.103.645 2.193 1.322 3.35 1.872Zm-15.165-10.717c7.723 2.86-.034-5.431-3.572-4.949-1.568-2.72-5.99-4.439-2.871-5.9-5.612 1.948-5.879-7.408-8.516-6.071-5.937-1.875-2.31-8.515-9.382-12.593-.646-4.297-7.026-8.024-9.06-14.506-.9-3.318-7.21-12.847-3.333-3.979 3.3 8.538 9.106 15.849 13.938 23.152 3.753 6.953 8.183 14.22 15.016 18.558 2.304 2.209 4.528 5.595 7.78 6.288Zm-22.247-24.426c.27-1.167 1.412 2.524 0 0Zm31.496 27.855c1.71-.766-2.459-.965 0 0Zm4.193 1.529c-.435-2.111-1.914 1.181 0 0Zm5.247 2.189c2.498-2.379-3.85-1.5 0 0Zm8.994 5.013c1.518-2.244-4.859-.847 0 0Zm-17.27-12.04c3.88-2.51-5.013-.034 0 0Zm3.936 1.963c-.11-1.327-1.403.595 0 0Zm19.674 12.28c3.163 1.996 18.47 4.375 8.885.819-1.603.338-17.772-4.573-8.885-.819ZM57.61 137.212c-.307-1.331-4.91-1.469 0 0Zm9.16 5.338c2.383-1.662-4.948-1.282 0 0Zm7.704 4.724c3.42-1.289-5.55-1.295 0 0Zm-20.59-14.121c3.71 2.846 14.967.365 5.683-1.699-4.226-2.252-13.749-3.794-7.258 1.358l1.574.341Zm25.808 15.752c1.546-2.634-6.483-1.504 0 0Zm-7.843-6.233c9.076 2.568-7.631-5.739-2.239-.944l1.195.541 1.044.403Zm15.724 9.088c8.595.082-7.763-1.185 0 0Zm-36.997-23.58c-.336-1.6-2.12.135 0 0Zm51.536 31.736c.229-2.892-2.805 2.151 0 0Zm-36.869-22.753c-.52-1.523-2.685-.063 0 0Zm-13.852-9.987c4.934-.296-6.755-2.174 0 0Zm-16.41-10.607c-.614-2.365-5.369-4.252 0 0Zm43.08 27.339c-.904-1.03-.425.226 0 0Zm26.814 16.455c-.086-1.575-1.46.596 0 0Zm-29.187-18.905c.483-2.029-4.207-.615 0 0Zm-19.976-12.66c3.67-.393-5.88-2.482 0 0Zm33.791 20.997c5.72-2.266-5.575-1.106 0 0Zm-17.577-11.931c6.593.85-7.844-4.485-1.446-.478l1.446.478Zm22.913 14.088c6.155-3.68 4.126 8.617 10.443 1.039 6.231-4.549-5.381 5.625 2.298.811 5.554-3.714 13.757 1.761 18.939 3.547 3.726-.183 7.349 3.223 11.169 1.151 7.355-1.981-14.381-2.938-8.683-6.452-6.729 1.958-11.701-2.335-15.012-6.645-7.548-1.743-16.276-5.602-20.043-12.282-1.536-2.508 2.22.353-1.326-3.747-4.548-4.045-6.82-8.637-9.872-13.555-3.648-1.946-4.073-7.673-4.442-.192.03-4.722-4.404-7.899-5.486-6.578-.019-4.548 4.745-2.268 1.41-5.633-.718-4.713-3.08-9.624-3.791-14.945-1.104-2.565-.156-8.059-3.767-2.252-1.316 6.137-.436-7.541 1.61-3.03 2.685-4.603-.965-4.062-1.114-3.423 1.75-3.883 1.107-9.392-.456-7.29.932-4.116 1.472-15.148-1.396-13.193 1.739-4.304 3.297-19.694-4.25-13.826-3.058.043-8.354 1.11-10.857 2.355 7.85 4.327-.79 1.563-3.985.875-.416 4.004-3.581 2.272-7.535 2.311 6.315.782-3.075 6.46-6.698 4.254-4.706 2.249 4.06 7.862.094 9.597.488 2.617-7.208-.945-6.604 5.098-4.567-1.921-.629 7.168 1.657 4.094 7.768 2.103 5.469 6.896 5.666 11.45-1.265 2.653-6.25-6.237-1.11-5.825-4.054-6.587-4.485-2.381-7.854.679-.784.222 8.594 4.354 2.709 6.397 5.178.798 5.325 5.33 6.38 8.197 3.111 3.241 2.474-3.58 6.198.316-2.356-3.47-12.482-9.778-4.33-7.755-.043-3.493-1.474-6.31 1.024-6.241 2.473-4.48-2.59 11.044 2.985 5.35 1.543-.673 1.925-4.484 4.7.36 4.028 3.964 1.455 6.837-4.229 3.207 1.017 3.45 7.603 4.682 6.366 10.077 1.312 4.744 3.147 2.997 4.748 2.722 1.255 4.61 1.967 1.22 2.027-.973 5.747 1.23 4.401 4.628 6.2 7.001 3.96 1.788-5.67-12.117 1.13-4.181 7.154 6.459 2.683 9.155-3.737 8.12 4.063-.328 5.374 5.493 10.456 5.289 4.635 2.204 7.772 10.672-.216 7.147-2.77-2.498-12.576-5.58-4.567-.828 7.396 3.425 13.27 5.474 20.404 9.774 5.106 3.645 7.311 7.819 9.246 8.645-4.29 2.05-12.93-1.636-6.515-2.766-4.001-.729-8.502-2.752-4.67 2.233 3.26 2.722 11.548 2.433 13.033 2.742-1.259 2.775-3.42 2.995.052 3.211-3.874 2.064 1.242 2.384 1.601 3.563Zm-7.921-22.37c-2.357-2.464-2.966-7.081-.419-3.064 1.307.525 4.186 7.544.419 3.064Zm25.797 16.387c1.47-.095.043 1.117 0 0Zm-29.519-22.43c-.09-3.727.853 2.874 0 0Zm-2.564-3.45c-2.964-5.728 3.738 1.622 0 0Zm-31.07-21.445c1.741-.464.857 2.979 0 0Zm24.728 13.404c1.07-4.017 1.257 3.37 0 0ZM56.82 99.9c-1.231-2.216 2.576 2.079 0 0Zm14.993 4.806c-2.808-6.292 1.989-3.437.621 1.032l-.62-1.032ZM45.958 87.464c-1.256-2.065-3.333-8.122-2.664-9.97.605 3.01 6.404 12.959 2.845 4.12-3.934-7.409 4.701 2.405 5.59 4.253.413 1.838-2.427-.502-.503 3.808-3.51-4.907-2.072 2.711-5.268-2.211Zm-7.99-5.506c.328-4.8 1.828 3.29 0 0Zm3.593 1.237c1.716-3.623 2.909 5.05 0 0Zm-8.646-6.689c-2.975-2.956-5.127-5.68.14-1.834 2.03.079-4.51-6.197.488-1.993 5.256.958 2.595 8.616-.628 3.827Zm4.542-.118c1.728-1.712.917 1.685 0 0Zm2.795.895c-2.62-4.909 3.178 2.059 0 0Zm-5.556-5.308c-8.648-7.697 10.867 4.024 1.413 1.426l-1.413-1.426Zm24.78 14.397c-3.743-2.244-.992-15.798.284-6.528 3.638-1.177-.201 4.787 2.513 4.732-.428 3.763-1.642 5.116-2.798 1.796Zm9.165 5.416c.367-4.084.772 2.793 0 0Zm-1.593-1.572c.413-1.745.043 2.054 0 0Zm-30.655-20.77C30.837 61.78 52.54 77.2 39.95 71.39c-1.315-.344-2.898-.467-3.558-1.945Zm17.649 9.357c-.526-6.455 1.174 1.07 0 0Zm13.4 8.596c1.037-3.677.077 2.432 0 0Zm-30.198-20.88c3.302-.706 13.685 5.8 4.15 1.86-1.06-1.174-3.318-.64-4.15-1.86ZM65.6 80.654c.353-6.6 1.971-3.942.012.945l-.012-.945Zm-25.899-16.43c1.345-1.974-3.572-8.923.709-2.493 1.85 1.47 5.355 2.462 2.26 3.08 4.867 4.295-1.188 1.164-2.969-.587Zm24.496 14.368c.93-7.518.82 4.405 0 0ZM36.892 57.28c1.028-.44.543 1.37 0 0Zm6.39 3.803c1.644-3.45 3.033 3.848 0 0Zm18.023 10.026c-.017-1.325.34 1.928 0 0Zm-1.044-2.311c-2.502-6.172 2.327 3.267 0 0Zm-1.536-4.046c-.42-2.55 1.427 3.203 0 0Zm2.5-4.064c-1.717-3.025 2.168-13.331 2.601-6.94-1.812 4.98-.523 7.767.741 1.087 2.335-5.257-.504 10.374-3.342 5.853Zm2.569-15.327c.748-.919.166 1.108 0 0Zm-4.29 84.535c-1.018-.888.128.565 0 0Zm8.837 4.47c4.916 1.262 4.891-.765.448-1.367-2.39-2.223-9.93-4.581-3.18-.275.446 1.132 1.859 1.105 2.733 1.642Zm-17.454-11.593c2.709 2.02 10.202 5.724 3.858.769 2.139-2.485-4.093-3.807-2.026-5.469-5.258-3.218-4.148-2.932-.464-2.83-6.32-2.825.912-2.614.572-4.061-2.437-.481-12.103-4.297-6.416.313-5.781-2.947-1.378 1.098-3.125.671-5.912-1.612 5.264 4.502-.94 2.984 3.392 2.688 9.13 6.884 1.435 2.844-1.014 1.46 5.506 3.672 7.106 4.779Zm9.243 5.31c11.24 3.622-5.51-4.424 0 0Zm47.317 28.665c.145-2.23-1.536 1.902 0 0Zm4.863 2.047c2.593-2.513.106 4.002 4.297-.616.045-3.305-.129-5.257-4.816-1.242-1.292.716-1.869 3.763.519 1.858Zm-77.198-48.483c-.797-3.13-5.582-3.114 0 0Zm5.193 3.403c-1.929-3.197-6.88-2.894 0 0Zm29.543 17.817c2.884 2.562 13.248 1.88 3.503.316-1.443-2.134-9.164-1.621-3.503-.316Zm40.612 25.082c4.44-3.725-4.301 1.662 0 0Zm9.233 6.345c.028-1.196-1.913.523 0 0Zm.014-1.674c4.916-5.209-4.763.308 0 0ZM22.339 99.618c-4.19-5.978-2.605-8.665-6.645-13.546-.765-3.733-6.932-12.204-3.19-3.23 3.428 5.249 4.446 13.374 9.835 16.776Zm95.826 60.01c9.045-5.846-3.712-2.546 0 0Zm6.904 2.705c4.53-3.889-2.864-.814 0 0Zm-91.497-58.63c1.296-1.928-3.347-.246 0 0Zm90.056 56.783c4.385-2.827-1.01-2.393-.795.26l.795-.26Zm-59.514-37.512c-.15-1.909-2.316.162 0 0Zm3.678 2.117c-1.169-2.363-1.797.371 0 0Zm62.872 37.306c5.619-4.053-3.405-.776-1.179.768l1.179-.768Zm-2.151-1.04c4.577-3.835-4.832 1.7 0 0Zm10.992 7.32c3.073-2.058-3.733-.666 0 0ZM36.39 102.313c4.12.923 16.46 10.144 9.18.638-3.73-1.104-1.493-10.22-5.296-8.606 2.553 4.265 2.1 6.08-3.26 3.391-6.737-3.288-3.786 1.63-2.47 2.985-1.793.408 2.374 1.558 1.846 1.592Zm-18.765-14.82c.737-3.05-6.79-16.78-3.555-6.88 1.168 2.074 1.05 6.004 3.555 6.88Zm34.443 21.235c-2.121-1.774-.1-.251 0 0Zm5.223 1.215c-.003-3.231-5.773-1.312 0 0Zm45.261 28.533c-.863-2.207-3.412-.051.001 0h-.001Zm2.174 1.588c-.321-1.235-1.254.239 0 0Zm17.94 11.3c1.726-1.275-2.153-.163 0 0ZM26.998 89.886c4.935-1.911-5.288-1.363 0 0Zm71.57 45.089c-.055-3.195-3.146.793 0 0Zm-73.52-49.633c3.17-1.071-2.932-.706 0 0Zm9.202 4.457c-.058-1.05-.974.397 0 0Zm112.231 68.822c4.077-.827 13.366 2.075 14.868-1.081-4.951-.12-17.128-3.493-17.704.805l1.084.171 1.752.105ZM37.174 90.536c.071-3.237-2.524-.12 0 0ZM12.981 73.754c-1.098-6.169-4.179-.934 0 0Zm5.77 1.45c.07-1.98-5.281-1.782 0 0Zm3.296 1.62c-.953-.773-.746.974 0 0ZM42.792 90.13c.977-.897-2.312-.665 0 0Zm-22.94-16.96c-.558-4.659-6.683-.698 0 0ZM8.023 65.497c-.169-2.15-1.153.81 0 0Zm1.759-1.329c-.287-2.55-1.51.324 0 0Zm9.72 5.802c4.111-1.614-7.486-3.34-.84-.305l.84.305ZM149.6 150.33c2.631-2.412-3.343-.746 0 0Zm15.717 8.147c1.054-3.119-2.654.41 0 0ZM20.498 64.875c.432-3.016-3.26.6 0 0ZM6.666 55.61c-.743-4.259-.641-11.735 6.465-9.208-9.486 1.883 6.565 11.79 4.538 3.968 3.989.195 7.803-2.357 5.71 1.517 7.859-.869 13.307-7.683 20.898-6.728 5.913-.783 12.378-1.376 18.75-3.756 5.24-.378 10.283-6.018 7.411-9.362-7.145-.604-14.623.29-22.52 1.86-8.75 1.818-16.7 5.275-25.528 6.758-8.606 1.156 1.73 3.185-.734 3.637-4.491 1.558 5.355 2.61-.582 4.252-3.668-.697-7.484-1.957-5.918-5.822-8.244 1.07-15.488 4.491-8.975 12.88l.485.004ZM26.53 45.492c1.933-7.12 10.355 5.86 3.168.946-.858-.642-2.27-1.166-3.168-.946Zm.376-3.452c2.79-2.078 1.483 1.166 0 0Zm3.542.056c.252-3.276 8.11 1.735 1.296 1.18l-1.296-1.18Zm4.846-1.948c1.77-2.067.508 1.84 0 0Zm1.24-.83c2.946-3.54 16.685-2.26 6.628-.345-2.695-2.03-4.761 1.197-6.629.345Zm17.93-2.764c-.449-9.67 8.907 3.437 0 0Zm5.087-.028c1.86-4.873 7.218-1.955.86-.979.139.519-.186 2.516-.86.98Zm-41.06 25.848c5.558-3.403-5.9-2.953 0 0Zm4.11 1.142c1.948-2.072-4.235-.84 0 0Zm-12.108-8.593c3.175-2.44-3.758-.928 0 0Zm164.102 102.662c.092-2.83-2.427 1.276 0 0Zm-16.675-11.379c.474-3.259-2.143.284 0 0Zm21.26 12.477c4.44.015 13.453-1.379 3.793-1.375-1.516.237-8.834.186-3.793 1.375ZM26.215 61.518c3.593-.246 5.622-3.963-.695-3.75-9.79-1.013 8.637 3.353-1.256 2.104-1.33.88 1.874 1.89 1.95 1.646Zm3.164 1.602c-.375-2.307-1.11 1.226 0 0Zm3.754-10.01c1.56-1.934-2.157-.517 0 0Zm-11.95-19.975c6.413-2.182 15.183-4.633 18.21 1.074-3.081-3.709-1.243-7.36 1.667-1.937 4.116 5.486 6.176-2.496 3.5-4.336 3.05 3.79 6.52 5.581 2.042.24 4.866-5.853-9.743.766-13.063.7-1.598.716-16.494 3.798-12.356 4.259Zm3.759-7.198c3.657-2.76 12.648 1.642 6.879-2.743-.565-.498-12.637 3.325-6.88 2.743Zm13.333.55c4.28.11-1.846-5.75 3.254-3.095-.837-2.736-5.938-3.248-8.432-4.342-1.41 2.502 2.871 7.471 5.178 7.438ZM27.28 14.385c1.48-2.007-2.596 1.018 0 0Zm5.45 1.305c6.897-.915-1.76-2.971-1.39-.074l1.39.074ZM22.553 7.726c-4.857-6.34 9.134 1.066 4.199-5.572-4.153-3.307-8.144 3.722-4.2 5.572ZM84.884 41.3c2.227-3.949-9.197-5.323-1.501-1.4.708.237.548 1.673 1.5 1.4Z"/>
</svg>
