<svg xmlns="http://www.w3.org/2000/svg" width="240" height="240" fill="none" viewBox="0 0 240 240">
  <path fill="#fff" d="M86 53l7-6.5 28.5 1 68 71.5-14 29-55.5 39.5-27-17L86 53z"/>
  <path fill="#F4511E" d="M211 110.5L129.5 29c-2.5-2.5-6-4-9.5-4s-7 1.5-9.5 4L93 46.5 113.5 67c2-1 4-1.5 6.5-1.5 8.5 0 15 6.5 15 15 0 2.5-.5 4.5-1.5 6.5l20 20c2-1 4-1.5 6.5-1.5 8.5 0 15 6.5 15 15s-6.5 15-15 15-15-6.5-15-15c0-2.5.5-4.5 1.5-6.5l-20-20c-.5 0-1 .5-1.5.5v52c6 2 10 7.5 10 14 0 8.5-6.5 15-15 15s-15-6.5-15-15c0-6.5 4-12 10-14V94c-6-2-10-7.5-10-14 0-2.5.5-4.5 1.5-6.5L86 53l-57 57.5c-2.5 2.5-4 6-4 9.5s1.5 7 4 9.5l81.5 81.5c2.5 2.5 6 4 9.5 4s7-1.5 9.5-4l81.5-81.5c2.5-2.5 4-6 4-9.5s-1.5-7-4-9.5z"/>
</svg>
