<svg xmlns="http://www.w3.org/2000/svg" width="192" height="192" fill="none" viewBox="0 0 192 192">
  <path fill="#00546B" d="M25 8c-7.248 0-12.976 3.844-15.687 10.5a16.933 16.933 0 0 0-1.297 6.484c-.008 7.448 4.791 13.494 7.671 17.11.505.632.958 1.195 1.438 1.875l1.297 1.718c1.288 1.689 2.755 3.603 3.219 4.563.152.44.353 1.212.625 2.188 1.256 4.52 3.6 12.92 7.328 19.312 1.504 2.576 3.62 5.814 5.14 8.094C33.718 84.932 32 94.304 32 100c0 10 2.074 18.031 6.594 25.375C40.266 127.999 45.368 136 54 136c3.064 0 8.155-1.197 9.531-8.797C69.651 135.099 80 145 96 152c0 0-29.994-34.996-35.266-56.813 0 0-5.737 5.816-10.609 17.688C48.669 109.211 48 105.08 48 100c0-5.016 2.206-16.229 3.063-20.125l.75-3.39-1.97-2.86c-.031-.056-4.061-5.874-6.421-9.922-2.688-4.608-4.67-11.738-5.734-15.562-.52-1.864-.929-3.213-1.313-4.125-1.4-3.032-3.45-5.695-5.25-8.047l-1-1.328c-.504-.728-1.17-1.572-1.922-2.516-1.464-1.84-4.19-5.269-4.11-7.469l.891-.625L25 24c6.36 0 14.553 4.515 17.64 6.219 1.009.552 1.75.933 2.141 1.11l1.39.608 2.735.094c3.576.08 14.445.334 22.125 3.407 14.008 5.6 21.753 11.205 29.625 21.437 18.592 24.176 25.452 55.485 25.516 55.797l1 4.516 4.375 1.421c.152.056 12.396 4.148 23.812 14.844C140.999 137.005 136 144 136 144s3.808 7.424 22 19c11 7 17 12 26 21 0 0-8.994-20.001-21.562-35.938 9.568-3.063 21.328-4.656 21.328-4.656l-7.282-10.094c-11.984-16.615-28.055-25.001-35.703-28.265-2.656-10.128-10.677-36.13-27.437-57.922-9.592-12.472-19.8-19.93-36.375-26.563-9.816-3.92-21.62-4.387-26.875-4.515C45.494 13.519 35.272 8 25 8Zm32.5 32S54 40 50 41l11 14.984c3-3.984 3-8.64 3-8.64S62.004 42 57.5 40Z"/>
</svg>
