<svg xmlns="http://www.w3.org/2000/svg" width="146" height="146" fill="none" viewBox="0 0 146 146">
  <rect width="146" height="146" fill="#61DAFB" rx="20"/>
  <path fill="#fff" d="M83.888 73A10.88 10.88 0 0173 83.888 10.88 10.88 0 0162.112 73 10.88 10.88 0 0173 62.112 10.88 10.88 0 0183.888 73z"/>
  <path fill="#E1E1E1" d="M73 84.725c-6.464 0-11.725-5.26-11.725-11.725 0-6.466 5.261-11.725 11.725-11.725 6.464 0 11.725 5.26 11.725 11.725 0 6.466-5.261 11.725-11.725 11.725zm0-21.775c-5.543 0-10.05 4.507-10.05 10.05 0 5.543 4.507 10.05 10.05 10.05 5.543 0 10.05-4.507 10.05-10.05 0-5.543-4.507-10.05-10.05-10.05z"/>
  <path fill="#fff" d="M46.994 132.468c-2.866 0-5.476-.657-7.759-1.95-3.819-2.166-6.458-5.898-7.849-11.089-1.616-6.041-1.423-14.066.556-23.245C15.976 90.69 6.837 82.264 6.837 73c0-9.266 9.138-17.691 25.104-23.182-1.98-9.18-2.174-17.206-.558-23.247 1.39-5.193 4.03-8.925 7.847-11.089 2.282-1.293 4.893-1.95 7.759-1.95 7.35 0 16.567 4.573 26.014 12.895 9.447-8.313 18.662-12.883 26.003-12.883 2.866 0 5.476.657 7.759 1.95 3.814 2.162 6.455 5.887 7.845 11.073 1.618 6.04 1.424 14.067-.557 23.25 15.969 5.49 25.109 13.917 25.109 23.183s-9.14 17.693-25.109 23.185c1.979 9.181 2.174 17.206.556 23.246-1.391 5.187-4.029 8.913-7.839 11.075-2.285 1.293-4.896 1.95-7.76 1.95-7.347 0-16.565-4.57-26.008-12.879-9.447 8.319-18.663 12.891-26.008 12.891zm-8.605-34.333c-1.66 7.901-1.845 14.651-.529 19.562.908 3.394 2.48 5.747 4.68 6.993 1.261.716 2.76 1.079 4.454 1.079 5.685 0 13.169-3.822 21.14-10.782-3.995-4.023-7.894-8.577-11.604-13.552-6.417-.697-12.514-1.806-18.14-3.3zm39.479 16.849c7.97 6.953 15.455 10.772 21.14 10.773 1.693 0 3.192-.363 4.457-1.078 2.192-1.243 3.762-3.591 4.668-6.98 1.317-4.914 1.132-11.663-.528-19.562-5.631 1.494-11.73 2.603-18.145 3.299-3.708 4.975-7.603 9.528-11.592 13.548zm-12.295-12.851A115.757 115.757 0 0073 110.408c2.5-2.523 4.99-5.298 7.42-8.275-2.497.119-4.985.179-7.42.179-2.437 0-4.926-.06-7.427-.179zm-5.388-7.058c4.179.357 8.489.537 12.815.537 4.33 0 8.635-.18 12.807-.535 2.49-3.491 4.863-7.15 7.058-10.88a145.241 145.241 0 005.942-11.199 145.072 145.072 0 00-5.94-11.195 148.791 148.791 0 00-7.06-10.88A151.496 151.496 0 0073 50.389c-4.335 0-8.641.18-12.809.537a147.778 147.778 0 00-7.067 10.88 145.053 145.053 0 00-5.94 11.198A145.648 145.648 0 0053.124 84.2a148.392 148.392 0 007.062 10.876zm42.112-14.07a152.688 152.688 0 01-7.656 13.015c3.976-.614 7.78-1.4 11.341-2.345-.988-3.432-2.226-7.012-3.685-10.67zM40.009 91.673c3.563.945 7.365 1.732 11.337 2.345a155.046 155.046 0 01-3.997-6.424 153.986 153.986 0 01-3.656-6.584 115.244 115.244 0 00-3.684 10.663zM106.192 73c2.559 5.68 4.645 11.294 6.211 16.712C124.801 85.35 132.462 78.986 132.462 73c0-5.987-7.661-12.35-20.059-16.712-1.563 5.418-3.65 11.032-6.211 16.712zM33.591 56.292C21.197 60.652 13.538 67.015 13.538 73c0 5.986 7.66 12.35 20.056 16.71 1.564-5.419 3.65-11.033 6.206-16.707-2.558-5.675-4.643-11.29-6.21-16.711zm6.416-1.965c.995 3.44 2.232 7.018 3.686 10.666a154.89 154.89 0 013.658-6.586 152.67 152.67 0 014-6.425 108.713 108.713 0 00-11.343 2.345zm54.637-2.347a154.122 154.122 0 017.657 13.014 115.221 115.221 0 003.686-10.669 109.02 109.02 0 00-11.343-2.345zM46.99 20.233c-1.694 0-3.191.361-4.45 1.078-2.198 1.246-3.773 3.6-4.682 6.993-1.315 4.916-1.13 11.665.53 19.563 5.629-1.494 11.73-2.605 18.148-3.302 3.713-4.976 7.613-9.527 11.603-13.547-7.974-6.963-15.462-10.785-21.15-10.785zm42.473 24.33c6.415.697 12.514 1.806 18.145 3.3 1.662-7.899 1.848-14.65.529-19.564-.907-3.387-2.479-5.735-4.673-6.978-1.263-.715-2.762-1.079-4.457-1.079-5.683 0-13.165 3.821-21.137 10.776 3.987 4.018 7.883 8.57 11.593 13.545zM73 43.688c2.435 0 4.923.06 7.422.18a117.211 117.211 0 00-7.419-8.271 117.11 117.11 0 00-7.423 8.27c2.497-.118 4.984-.178 7.42-.178z"/>
  <path fill="#EBEBEB" d="M46.989 14.37c7.527 0 16.743 4.874 26.016 13.177 9.271-8.296 18.482-13.165 26.003-13.165 2.718 0 5.191.62 7.346 1.84 3.612 2.047 6.117 5.6 7.447 10.563 1.804 6.561 1.426 14.64-.727 23.584 15.447 5.16 25.251 13.303 25.251 22.631s-9.804 17.47-25.252 22.633c2.246 9.669 2.623 17.966.727 23.582-1.33 4.961-3.834 8.516-7.442 10.562-2.159 1.223-4.121 1.848-6.838 1.848h-.698c-7.524 0-16.553-4.874-25.822-13.167-9.271 8.301-18.484 13.172-26.008 13.172-2.718 0-5.19-.62-7.346-1.841-3.615-2.052-6.122-5.609-7.45-10.576-1.994-6.226-1.592-14.41.726-23.582C17.477 90.469 7.675 82.328 7.675 73c0-9.326 9.802-17.469 25.246-22.63-1.151-5.125-1.886-9.882-1.912-14.22a35.588 35.588 0 011.185-9.363c1.33-4.968 3.835-8.526 7.45-10.576 2.154-1.223 4.626-1.841 7.345-1.841zm-9.234 34.533c5.824-1.6 12.29-2.809 19.234-3.545 3.99-5.377 8.165-10.211 12.371-14.379C61.2 23.7 53.253 19.393 46.99 19.393c-1.84 0-3.476.399-4.864 1.188-2.4 1.362-4.107 3.886-5.077 7.506-1.437 5.363-1.11 12.612.707 20.816zm70.485-.001c1.818-8.204 2.144-15.456.707-20.819-.968-3.613-2.675-6.132-5.07-7.49-1.39-.79-3.03-1.188-4.87-1.188-6.259 0-14.2 4.301-22.359 11.574 4.204 4.168 8.375 9.002 12.362 14.377 6.94.737 13.406 1.946 19.23 3.546zm-44.491-4.099c3.018-.18 6.045-.335 9.192-.335 3.148 0 6.29.157 9.308.335-3.028-3.817-6.137-7.305-9.247-10.392-3.11 3.087-6.221 6.575-9.253 10.392zM73 96.45c4.625 0 9.052-.203 13.263-.573a148.012 148.012 0 007.323-11.254A145.595 145.595 0 0099.733 73a145.79 145.79 0 00-6.146-11.62 147.757 147.757 0 00-7.324-11.254c-4.21-.373-8.637-.576-13.263-.576-4.626 0-9.055.203-13.266.575a146.143 146.143 0 00-13.475 22.877c1.83 3.874 3.879 7.77 6.144 11.62a148.09 148.09 0 007.326 11.254c4.213.371 8.643.574 13.271.574zm29.39-29.458c1.884-4.538 3.443-8.993 4.633-13.255-4.277-1.175-9-2.147-14.117-2.859a154.002 154.002 0 019.484 16.114zm-58.788.001a155.07 155.07 0 014.469-8.162 154.045 154.045 0 015.017-7.951c-5.117.71-9.841 1.683-14.117 2.86 1.189 4.26 2.748 8.714 4.631 13.253zm68.238 23.799C125.367 86.209 133.3 79.475 133.3 73c0-6.476-7.933-13.21-21.46-17.792-1.596 5.703-3.801 11.697-6.566 17.79 2.765 6.096 4.97 12.089 6.566 17.794zm-77.683-.002c1.594-5.702 3.797-11.695 6.562-17.787-2.765-6.093-4.97-12.088-6.564-17.791C20.63 59.794 12.7 66.525 12.7 73c0 6.475 7.931 13.207 21.457 17.79zm58.749 4.332c5.117-.71 9.84-1.682 14.117-2.86-1.191-4.26-2.751-8.716-4.633-13.255a155.414 155.414 0 01-4.473 8.162 154.002 154.002 0 01-5.011 7.953zm-39.823-.002a155.819 155.819 0 01-5.014-7.95 154.868 154.868 0 01-4.467-8.157c-1.883 4.536-3.44 8.99-4.63 13.25 4.275 1.174 8.997 2.145 14.11 2.857zm-6.089 31.485c6.263 0 14.206-4.305 22.365-11.581-4.21-4.169-8.384-9.005-12.375-14.383-6.94-.736-13.404-1.945-19.226-3.544-1.816 8.204-2.142 15.453-.707 20.816.968 3.618 2.677 6.143 5.075 7.504 1.387.789 3.027 1.188 4.868 1.188zm52.014-.01c1.841 0 3.477-.399 4.869-1.188 2.395-1.358 4.099-3.877 5.065-7.492 1.437-5.365 1.111-12.614-.705-20.817-5.824 1.6-12.29 2.81-19.23 3.545-3.987 5.376-8.16 10.21-12.364 14.379 8.159 7.27 16.102 11.571 22.365 11.573zM73 111.592c3.11-3.089 6.22-6.578 9.25-10.395-3.017.179-5.962.558-9.111.558-3.15 0-6.377-.379-9.395-.558 3.032 3.819 6.144 7.308 9.256 10.395zM46.394 12.821c-3.013 0-5.167.566-7.576 1.93-4.018 2.28-6.792 6.183-8.242 11.602-1.608 6.008-1.47 13.906.395 22.916C15.077 54.892 6 63.494 6 73c0 9.507 9.079 18.108 24.973 23.731-1.865 9.01-2.004 16.908-.394 22.916 1.449 5.415 4.22 9.318 8.243 11.601 2.412 1.367 5.31 1.948 8.321 1.948 7.516 0 16.336-4.246 25.859-12.505 9.52 8.251 18.49 12.602 26.004 12.604 3.013 0 5.764-.692 8.176-2.059 4.015-2.276 6.785-6.174 8.234-11.586 1.61-6.009 1.471-13.907-.394-22.915C130.92 91.11 140 82.507 140 73s-9.079-18.11-24.976-23.733c1.866-9.012 2.003-16.91.394-22.917-1.451-5.412-4.223-9.31-8.24-11.586-2.41-1.365-5.16-2.059-8.172-2.059-7.512 0-16.48 4.353-26.003 12.608-9.524-8.261-18.535-12.497-26.053-12.497l-.556.005zm-7.363 34.01c-.774-3.892-1.293-7.54-1.322-10.74-.025-2.88.37-5.388.955-7.572.85-3.17 2.292-5.35 4.286-6.483a8.199 8.199 0 014.059-1.078c5.328 0 12.34 3.648 19.904 10.107-3.72 3.807-7.357 8.071-10.83 12.705-6.005.67-11.73 1.696-17.052 3.061zm40.063-15.763c7.562-6.454 14.59-9.988 19.912-9.988 1.548 0 2.91.327 4.043.97 1.992 1.129 3.433 3.305 4.28 6.467 1.464 4.72 1.275 10.995-.365 18.313-5.322-1.364-11.045-2.392-17.048-3.059-3.472-4.631-7.105-8.896-10.822-12.703zM67.427 42.95a115.38 115.38 0 015.575-6.16 114.664 114.664 0 015.57 6.16 156.276 156.276 0 00-11.145 0zm-6.78 8.777c4.028-.333 8.179-.57 12.353-.57 4.172 0 8.323.237 12.35.57a147.035 147.035 0 016.794 10.501c2.046 3.48 3.974 7.1 5.733 10.77a145.014 145.014 0 01-12.529 21.274c-4.025.334-8.176.781-12.348.781-4.176 0-8.328-.449-12.358-.782-2.4-3.38-4.685-6.91-6.797-10.5A143.942 143.942 0 0148.113 73a144.365 144.365 0 015.733-10.774c2.114-3.59 4.4-7.118 6.8-10.498zm41.535 11.263c-.92-1.705-1.863-3.38-2.82-5.008a154.883 154.883 0 00-2.99-4.873c2.972.506 5.838 1.11 8.567 1.81a112.866 112.866 0 01-2.757 8.071zm-61.128-8.072a107.043 107.043 0 018.566-1.809 153.738 153.738 0 00-2.991 4.871c-.957 1.628-1.9 3.303-2.82 5.009a112.088 112.088 0 01-2.755-8.07zm66.057 18.08c2.37-5.296 4.334-10.539 5.846-15.62 11.563 4.219 18.668 10.13 18.668 15.622 0 5.492-7.105 11.403-18.668 15.623-1.514-5.084-3.476-10.328-5.846-15.625zM33.038 88.621C21.478 84.401 14.375 78.491 14.375 73c0-5.49 7.104-11.402 18.661-15.621 1.513 5.084 3.474 10.326 5.844 15.623-2.368 5.294-4.33 10.537-5.842 15.619zm63.333 4.271a155.684 155.684 0 002.99-4.872c.958-1.628 1.901-3.305 2.821-5.01a113.63 113.63 0 012.757 8.075 108.79 108.79 0 01-8.568 1.807zm-55.315-1.81a113.063 113.063 0 012.754-8.067 152.65 152.65 0 005.807 9.876 108.413 108.413 0 01-8.56-1.81zm5.938 33.848c-1.548 0-2.908-.327-4.042-.97-1.993-1.132-3.435-3.311-4.283-6.48-1.392-4.766-1.234-11.042.365-18.313 5.32 1.363 11.042 2.392 17.044 3.058 3.475 4.633 7.111 8.9 10.833 12.71-7.562 6.461-14.592 9.997-19.917 9.995zm42.92-22.701c6.003-.669 11.727-1.695 17.048-3.059 1.851 7.94 1.997 14.268.364 18.311-.846 3.164-2.285 5.34-4.275 6.467-1.135.644-2.496.97-4.042.97v1.675l-.001-1.675c-5.327 0-12.357-3.534-19.918-9.984 3.719-3.808 7.352-8.072 10.824-12.705zM73 109.213a113.535 113.535 0 01-5.578-6.164c1.876.067 3.742.101 5.578.101 1.834 0 3.698-.034 5.573-.101A113.483 113.483 0 0173 109.213z"/>
</svg>
